<?xml version="1.0" encoding="UTF-8"?>
<svg width="170px" height="26px" viewBox="0 0 170 26" version="1.1" xmlns="http://www.w3.org/2000/svg" xmlns:xlink="http://www.w3.org/1999/xlink">
    <!-- Generator: Sketch 62 (91390) - https://sketch.com -->
    <title>logo</title>
    <desc>Created with Sketch.</desc>
    <g id="Cover" stroke="none" stroke-width="1" fill="none" fill-rule="evenodd">
        <g id="Startseite" transform="translate(-135.000000, -27.000000)" fill="#0076CE">
            <g id="nav">
                <g id="Brand/Logo/Wort--und-Bildmarke" transform="translate(135.000000, 26.000000)">
                    <path d="M21.5410959,15.1666667 C24.4349167,15.1666667 26.7808219,17.5171717 26.7808219,20.4166667 C26.7808219,23.3161616 24.4349167,25.6666667 21.5410959,25.6666667 C20.72383,25.6666667 19.9502657,25.4791911 19.2609037,25.1448201 C17.5198933,26.2399773 15.4985335,26.8333333 13.390411,26.8333333 C13.0006338,26.8333333 12.6131214,26.8130885 12.2289622,26.7728754 C11.5893719,26.7059244 11.1250498,26.1321428 11.1918699,25.4912984 C11.2586899,24.850454 11.8313486,24.3852215 12.4709389,24.4521726 C12.7747481,24.4839747 13.0814926,24.5 13.390411,24.5 C14.78747,24.5 16.133373,24.1712575 17.3418986,23.5555679 C16.688166,22.6808625 16.3013699,21.5940237 16.3013699,20.4166667 C16.3013699,17.5171717 18.6472751,15.1666667 21.5410959,15.1666667 Z M6.06760347,8.97292194 C6.58793869,9.35154108 6.70342293,10.0811147 6.32554473,10.6024701 C5.3494216,11.9492193 4.77976037,13.5487709 4.67391799,15.1972873 C4.86083267,15.1768673 5.04909044,15.1666667 5.23972603,15.1666667 C8.13354681,15.1666667 10.4794521,17.5171717 10.4794521,20.4166667 C10.4794521,23.3161616 8.13354681,25.6666667 5.23972603,25.6666667 C2.34590525,25.6666667 0,23.3161616 0,20.4166667 C0,18.5950461 0.925937338,16.9901138 2.33195675,16.0485994 C2.26708548,13.6142576 3.0076459,11.2092929 4.44124421,9.23136897 C4.8191224,8.71001348 5.54726825,8.5943028 6.06760347,8.97292194 Z M150.778964,8.96014807 C154.839262,8.96014807 156.261513,10.7479186 156.261513,14.7818625 L156.261513,23.8353161 C156.261513,24.2937188 156.055057,24.5 155.596266,24.5 L154.655745,24.5 C154.196955,24.5 153.990499,24.2937188 153.990499,23.8353161 L153.990499,14.7589424 C153.990499,12.1460469 153.233494,11.0688005 150.824843,11.0688005 C150.090778,11.0458804 149.356713,11.1375609 148.668527,11.3667623 C148.140918,11.5730435 148.003281,11.825165 148.003281,12.6961302 L148.003281,23.7894758 C148.003281,24.2478785 147.971687,24.4984329 147.512896,24.4984329 L146.295224,24.4984329 C145.836433,24.4984329 145.686388,24.3474297 145.686388,23.889027 L145.686388,12.2148073 C145.686388,10.6562381 146.145178,10.0144743 147.154518,9.60191186 C148.301494,9.16642929 149.540229,8.93722793 150.778964,8.96014807 Z M48.8043924,8.958581 C52.4288389,8.958581 53.7521372,11.0348756 53.7521372,14.7479376 L53.7521372,23.889027 C53.7521372,24.3474297 53.5758156,24.4984329 53.1170249,24.4984329 L52.176504,24.4984329 C51.7177133,24.4984329 51.5112575,24.2921517 51.5112575,23.833749 L51.5112575,14.7573753 C51.5112575,12.1444798 50.8689505,11.0672335 48.8043924,11.0672335 C48.1162064,11.0443133 47.4280204,11.1359939 46.7857134,11.3651952 C46.2581041,11.5714765 46.1204669,11.8235979 46.1204669,12.6945631 L46.1204669,23.7879087 C46.1204669,24.2463114 45.9140111,24.4525927 45.4552204,24.4525927 L44.5146995,24.4525927 C44.0559088,24.4525927 43.849453,24.2463114 43.849453,23.7879087 L43.849453,14.7573753 C43.849453,12.1444798 43.2071461,11.0672335 41.142588,11.0672335 C40.4544019,11.0443133 39.7662159,11.1359939 39.1239089,11.3651952 C38.6192392,11.5714765 38.4586624,11.8235979 38.4586624,12.6945631 L38.4586624,23.7879087 C38.4586624,24.2463114 38.2522066,24.4525927 37.793416,24.4525927 L36.852895,24.4525927 C36.3941044,24.4525927 36.0958904,24.3474297 36.0958904,23.889027 L36.0958904,12.2132403 C36.0958904,10.9984731 36.3711648,10.2879489 37.0822904,9.89830656 C38.137509,9.25654276 39.6515182,8.958581 41.0508298,8.958581 C42.7942344,8.958581 43.9870902,9.39406357 44.7440949,10.2650287 C45.9140111,9.41698371 47.3362622,8.958581 48.8043924,8.958581 Z M127.943395,21.7561061 C128.49568,21.7561061 128.943395,22.2038214 128.943395,22.7561061 L128.943395,23.4984329 C128.943395,24.0507177 128.49568,24.4984329 127.943395,24.4984329 L127.203633,24.4984329 C126.651348,24.4984329 126.203633,24.0507177 126.203633,23.4984329 L126.203633,22.7561061 C126.203633,22.2038214 126.651348,21.7561061 127.203633,21.7561061 L127.943395,21.7561061 Z M62.3706245,8.65387802 C66.2932849,8.65387802 67.4632011,11.0604923 67.4632011,14.7735542 L67.4632011,21.2599526 C67.4632011,22.8185218 67.0044104,23.4144453 65.9721314,23.8499279 C64.8251547,24.2854105 63.5864198,24.5146119 62.347685,24.4916917 C58.8149967,24.4916917 56.7963177,22.7956017 56.7963177,19.7013834 C56.7963177,16.4467241 59.1820292,15.0485959 62.4165036,15.0485959 C63.3570245,15.0485959 64.2746058,15.1861167 65.1921872,15.415318 L65.1921872,13.8796689 C65.1921872,11.8397769 64.2287268,10.8083708 62.393564,10.8083708 C60.7419176,10.8083708 59.7096385,11.5418151 59.5490618,12.8253427 C59.5261222,13.1920649 59.1820292,13.4900266 58.7920571,13.4441864 L57.9662339,13.4441864 C57.6221409,13.4900266 57.3009874,13.2379051 57.2551083,12.8941031 L57.2551083,12.7336622 C57.2551083,10.4416486 59.2967269,8.65387802 62.3706245,8.65387802 Z M112.295184,8.65387802 C116.217845,8.65387802 117.387761,11.0604923 117.387761,14.7735542 L117.387761,21.2599526 C117.387761,22.8185218 116.92897,23.4144453 115.896691,23.8499279 C114.726775,24.2854105 113.51098,24.5146119 112.272245,24.4916917 C108.739556,24.4916917 106.720877,22.7956017 106.720877,19.7013834 C106.720877,16.4467241 109.106589,15.0485959 112.341063,15.0485959 C113.281584,15.0485959 114.199166,15.1861167 115.116747,15.415318 L115.116747,13.8796689 C115.116747,11.8397769 114.153287,10.8083708 112.318124,10.8083708 C110.666477,10.8083708 109.634198,11.5418151 109.473622,12.8253427 C109.427743,13.1920649 109.241776,13.574966 108.851804,13.5291257 L107.93855,13.5291257 C107.594457,13.574966 107.225547,13.2379051 107.179668,12.8941031 L107.179668,12.7336622 C107.179668,10.4416486 109.221287,8.65387802 112.295184,8.65387802 Z M137.303343,8.65387802 C140.767213,8.65387802 142.740013,10.7166902 142.740013,15.071516 L142.740013,18.0969739 C142.740013,22.4517996 140.698394,24.4916917 137.165706,24.4916917 C133.678897,24.4916917 131.683157,22.4517996 131.683157,18.0969739 L131.683157,15.0485959 C131.683157,10.7166902 133.724776,8.65387802 137.303343,8.65387802 Z M122.329875,4.08333333 C122.788666,4.08333333 122.995122,4.33545482 122.995122,4.79385754 L123.018061,23.8175701 C123.018061,24.2759728 122.811605,24.482254 122.352815,24.482254 L121.389354,24.482254 C120.930563,24.482254 120.724108,24.2759728 120.724108,23.8175701 L120.724108,4.79385754 C120.724108,4.33545482 120.930563,4.08333333 121.389354,4.08333333 L122.329875,4.08333333 Z M103.067861,9.26328398 C103.526652,9.26328398 103.764701,9.49248533 103.764701,9.95088805 L103.764701,23.8175701 C103.787641,24.2759728 103.558246,24.482254 103.099455,24.482254 L102.158934,24.482254 C101.700143,24.482254 101.493687,24.2759728 101.493687,23.8175701 L101.493687,9.95088805 C101.493687,9.49248533 101.695816,9.26328398 102.154607,9.26328398 L103.067861,9.26328398 Z M73.2980802,5.91155121 C73.7568709,5.91155121 73.9633267,6.1636727 73.9633267,6.62207541 L73.9633267,8.95992924 L76.5554941,8.95992924 C77.0142848,8.95992924 77.2436801,9.16621046 77.2436801,9.62461317 L77.2436801,10.266377 C77.2436801,10.7247797 76.9913452,10.9310609 76.5554941,10.9310609 L73.9633267,10.9310609 L73.9633267,20.7637991 C73.9633267,21.8868857 74.3303593,22.3452884 75.2708802,22.3452884 L76.6701918,22.3452884 C77.1060429,22.3452884 77.2895592,22.6203301 77.2895592,23.0558126 L77.2895592,23.2391737 C77.2895592,24.0642986 76.7160708,24.476861 74.8120895,24.476861 C72.8392895,24.476861 71.6693733,23.285014 71.6693733,20.5575179 L71.6693733,10.9310609 L70.2930012,10.9310609 C69.8342105,10.9310609 69.5818757,10.7247797 69.5818757,10.266377 L69.5818757,9.62461317 C69.5818757,9.16621046 69.8342105,8.95992924 70.2930012,8.95992924 L71.6923128,8.95992924 L71.6923128,6.62207541 C71.6923128,6.1636727 71.8987686,5.91155121 72.3575593,5.91155121 L73.2980802,5.91155121 Z M84.2657844,8.958581 C87.5920169,8.958581 89.6336354,10.9984731 89.6336354,14.8948961 L89.6336354,15.7658613 C89.6336354,17.4390312 89.2436633,17.7140728 87.5920169,17.7140728 L81.03131,17.7140728 L81.03131,18.8371594 C81.03131,21.129173 82.0635891,22.3439402 84.4722402,22.3439402 L88.3949006,22.3439402 C88.8307517,22.3439402 89.0372075,22.5960617 89.0372075,23.0086241 L89.0372075,23.1919852 C89.0372075,24.1087906 88.2802029,24.4755128 85.8256727,24.4755128 L84.2657844,24.4755128 C80.7330961,24.4755128 78.7144171,22.3439402 78.7144171,18.2412359 L78.7144171,15.9033821 C78.7144171,11.2505946 80.5954589,8.958581 84.2657844,8.958581 Z M97.0866901,8.958581 C98.4401227,8.958581 98.8530343,9.14194208 98.8530343,9.89830656 L98.8530343,10.3567093 C98.8530343,10.9297127 98.669518,11.1818342 97.9583924,11.1818342 L97.0637506,11.1818342 C96.1232297,11.1818342 95.5497413,11.2735147 95.022132,11.4797959 C94.4486437,11.7319174 94.3798251,12.006959 94.3798251,13.3134068 L94.3798251,23.8108289 C94.3798251,24.2692316 94.1733693,24.4755128 93.7145786,24.4755128 L92.7740577,24.4755128 C92.315267,24.4755128 92.1088112,24.2692316 92.1088112,23.8108289 L92.1088112,12.2132403 C92.1088112,9.3482233 94.7239181,8.958581 97.0866901,8.958581 Z M164.632149,8.958581 C167.958381,8.958581 170,10.9984731 170,14.8948961 L170,15.7658613 C170,17.4390312 169.610028,17.7140728 167.958381,17.7140728 L161.397675,17.7140728 L161.397675,18.8371594 C161.397675,21.129173 162.429954,22.3439402 164.838605,22.3439402 L168.761265,22.3439402 C169.197116,22.3439402 169.403572,22.5960617 169.403572,23.0086241 L169.403572,23.1919852 C169.403572,24.1087906 168.646567,24.4755128 166.192037,24.4755128 L164.632149,24.4755128 C161.099461,24.4755128 159.080782,22.3439402 159.080782,18.2412359 L159.080782,15.9033821 C159.080782,11.2505946 160.961823,8.958581 164.632149,8.958581 Z M5.23972603,17.5 C3.63204782,17.5 2.32876712,18.8058361 2.32876712,20.4166667 C2.32876712,22.0274972 3.63204782,23.3333333 5.23972603,23.3333333 C6.84740424,23.3333333 8.15068493,22.0274972 8.15068493,20.4166667 C8.15068493,18.8058361 6.84740424,17.5 5.23972603,17.5 Z M21.5410959,17.5 C19.9334177,17.5 18.630137,18.8058361 18.630137,20.4166667 C18.630137,22.0274972 19.9334177,23.3333333 21.5410959,23.3333333 C23.1487741,23.3333333 24.4520548,22.0274972 24.4520548,20.4166667 C24.4520548,18.8058361 23.1487741,17.5 21.5410959,17.5 Z M112.226366,16.8822067 C110.391203,16.8822067 109.03777,17.5927309 109.03777,19.6097028 C109.03777,21.672515 110.184747,22.3830392 112.295184,22.3830392 C113.029249,22.4059594 113.740375,22.3142788 114.428561,22.0850775 C114.910291,21.9017164 115.093807,21.6495949 115.093807,20.7786297 L115.093807,17.2489289 C114.153287,17.0197275 113.189826,16.8822067 112.226366,16.8822067 Z M62.3247454,16.8822067 C60.4666431,16.8822067 59.1132106,17.5927309 59.1132106,19.6097028 C59.1132106,21.672515 60.2601873,22.3830392 62.3706245,22.3830392 C63.1046896,22.4059594 63.8158152,22.2913587 64.5269407,22.0621573 C65.0086709,21.8787963 65.1921872,21.6266748 65.1921872,20.7557096 L65.1921872,17.2489289 C64.2516663,17.0197275 63.2882059,16.8822067 62.3247454,16.8822067 Z M137.257464,10.7625305 C134.848813,10.7625305 134.00005,12.1148185 134.00005,14.727714 L134.00005,18.3720155 C134.00005,21.0307512 134.871753,22.337199 137.211585,22.337199 C139.551418,22.337199 140.42312,21.0307512 140.42312,18.3949356 L140.42312,14.727714 C140.42312,12.1148185 139.574357,10.7625305 137.257464,10.7625305 Z M84.2657844,11.0901536 C82.1324077,11.0901536 81.03131,12.2361604 81.03131,14.5510941 L81.03131,15.8804619 L86.697375,15.9033821 C87.2249843,15.9033821 87.3167425,15.8117015 87.3167425,15.1928579 L87.3167425,14.5510941 C87.3167425,12.2361604 86.2615239,11.0901536 84.2657844,11.0901536 Z M164.655089,11.0901536 C162.521712,11.0901536 161.420614,12.2361604 161.420614,14.5510941 L161.420614,15.8804619 L167.086679,15.9033821 C167.614288,15.9033821 167.706047,15.8117015 167.706047,15.1928579 L167.706047,14.5510941 C167.706047,12.2361604 166.627888,11.0901536 164.655089,11.0901536 Z M13.390411,1.16666667 C16.1371519,1.16666667 18.3902581,3.28431256 18.612193,5.9790531 C20.7724571,7.1382876 22.49906,8.99426596 23.499278,11.2439216 C23.7609624,11.8324932 23.4969018,12.5221778 22.9094821,12.7843753 C22.3220623,13.0465728 21.6337274,12.7819944 21.372043,12.1934229 C20.6948378,10.6702764 19.5943603,9.37424958 18.2189219,8.45786104 C17.423593,10.3440436 15.5611573,11.6666667 13.390411,11.6666667 C10.4965902,11.6666667 8.15068493,9.3161616 8.15068493,6.41666667 C8.15068493,3.51717173 10.4965902,1.16666667 13.390411,1.16666667 Z M13.390411,3.5 C11.7827327,3.5 10.4794521,4.80583615 10.4794521,6.41666667 C10.4794521,8.02749719 11.7827327,9.33333333 13.390411,9.33333333 C14.9980892,9.33333333 16.3013699,8.02749719 16.3013699,6.41666667 C16.3013699,4.80583615 14.9980892,3.5 13.390411,3.5 Z M102.640664,4.08333333 C103.558246,4.08333333 104.017036,4.56465618 104.017036,5.4127012 C104.017036,6.32950662 103.535306,6.78790933 102.640664,6.78790933 C101.746022,6.78790933 101.241353,6.35242676 101.241353,5.43562133 C101.241353,4.58757632 101.723083,4.08333333 102.640664,4.08333333 Z" id="Combined-Shape"></path>
                </g>
            </g>
        </g>
    </g>
</svg>